<svg xmlns="http://www.w3.org/2000/svg" xmlns:xlink="http://www.w3.org/1999/xlink" width="200" zoomAndPan="magnify" viewBox="0 0 150 37.5" height="50" preserveAspectRatio="xMidYMid meet" version="1.0"><defs><g/><clipPath id="d3e53fa117"><path d="M 3.207031 5 L 20 5 L 20 29.277344 L 3.207031 29.277344 Z M 3.207031 5 " clip-rule="nonzero"/></clipPath><clipPath id="49845148d4"><path d="M 3.207031 5 L 20 5 L 20 24 L 3.207031 24 Z M 3.207031 5 " clip-rule="nonzero"/></clipPath><clipPath id="5836669013"><path d="M 24 4.855469 L 29.851562 4.855469 L 29.851562 10 L 24 10 Z M 24 4.855469 " clip-rule="nonzero"/></clipPath><clipPath id="39f6e96e33"><path d="M 13 5 L 29.851562 5 L 29.851562 29.277344 L 13 29.277344 Z M 13 5 " clip-rule="nonzero"/></clipPath><clipPath id="c4cf6c953e"><path d="M 13 5 L 29.851562 5 L 29.851562 24 L 13 24 Z M 13 5 " clip-rule="nonzero"/></clipPath></defs><g clip-path="url(#d3e53fa117)"><path fill="#00d7ff" d="M 9.539062 6.09375 L 18.097656 14.652344 C 18.445312 15 18.710938 15.398438 18.902344 15.855469 C 19.089844 16.308594 19.183594 16.78125 19.183594 17.273438 C 19.183594 17.765625 19.089844 18.238281 18.902344 18.695312 C 18.710938 19.148438 18.445312 19.550781 18.097656 19.898438 L 9.539062 28.453125 C 7.203125 30.792969 3.207031 29.136719 3.207031 25.828125 L 3.207031 8.714844 C 3.207031 5.414062 7.203125 3.757812 9.539062 6.09375 Z M 9.539062 6.09375 " fill-opacity="1" fill-rule="nonzero"/></g><g clip-path="url(#49845148d4)"><path fill="#0096ff" d="M 9.539062 6.09375 C 7.214844 3.769531 3.265625 5.394531 3.210938 8.660156 C 3.210938 8.660156 16.675781 21.398438 14.53125 23.476562 L 18.105469 19.90625 C 18.453125 19.558594 18.71875 19.15625 18.90625 18.703125 C 19.097656 18.246094 19.191406 17.773438 19.191406 17.28125 C 19.191406 16.789062 19.097656 16.316406 18.90625 15.863281 C 18.71875 15.40625 18.453125 15.007812 18.105469 14.660156 Z M 9.539062 6.09375 " fill-opacity="1" fill-rule="nonzero"/></g><g clip-path="url(#5836669013)"><path fill="#1174ee" d="M 29.828125 7.308594 C 29.828125 7.628906 29.765625 7.9375 29.644531 8.234375 C 29.519531 8.53125 29.347656 8.792969 29.117188 9.023438 C 28.890625 9.25 28.628906 9.425781 28.332031 9.546875 C 28.035156 9.671875 27.726562 9.730469 27.40625 9.730469 C 27.082031 9.730469 26.773438 9.671875 26.476562 9.546875 C 26.179688 9.425781 25.917969 9.25 25.691406 9.023438 C 25.460938 8.792969 25.289062 8.53125 25.164062 8.234375 C 25.042969 7.9375 24.980469 7.628906 24.980469 7.308594 C 24.980469 6.984375 25.042969 6.675781 25.164062 6.378906 C 25.289062 6.082031 25.460938 5.820312 25.691406 5.59375 C 25.917969 5.367188 26.179688 5.191406 26.476562 5.066406 C 26.773438 4.945312 27.082031 4.882812 27.40625 4.882812 C 27.726562 4.882812 28.035156 4.945312 28.332031 5.066406 C 28.628906 5.191406 28.890625 5.367188 29.117188 5.59375 C 29.347656 5.820312 29.519531 6.082031 29.644531 6.378906 C 29.765625 6.675781 29.828125 6.984375 29.828125 7.308594 Z M 29.828125 7.308594 " fill-opacity="1" fill-rule="nonzero"/><path fill="#1174ee" d="M 29.828125 7.308594 C 29.828125 7.628906 29.765625 7.9375 29.644531 8.234375 C 29.519531 8.53125 29.347656 8.792969 29.117188 9.023438 C 28.890625 9.25 28.628906 9.425781 28.332031 9.546875 C 28.035156 9.671875 27.726562 9.730469 27.40625 9.730469 C 27.082031 9.730469 26.773438 9.671875 26.476562 9.546875 C 26.179688 9.425781 25.917969 9.25 25.691406 9.023438 C 25.460938 8.792969 25.289062 8.53125 25.164062 8.234375 C 25.042969 7.9375 24.980469 7.628906 24.980469 7.308594 C 24.980469 6.984375 25.042969 6.675781 25.164062 6.378906 C 25.289062 6.082031 25.460938 5.820312 25.691406 5.59375 C 25.917969 5.367188 26.179688 5.191406 26.476562 5.066406 C 26.773438 4.945312 27.082031 4.882812 27.40625 4.882812 C 27.726562 4.882812 28.035156 4.945312 28.332031 5.066406 C 28.628906 5.191406 28.890625 5.367188 29.117188 5.59375 C 29.347656 5.820312 29.519531 6.082031 29.644531 6.378906 C 29.765625 6.675781 29.828125 6.984375 29.828125 7.308594 Z M 29.828125 7.308594 " fill-opacity="1" fill-rule="nonzero"/></g><g clip-path="url(#39f6e96e33)"><path fill="#0096ff" d="M 28.742188 14.671875 L 20.183594 6.113281 C 17.886719 3.816406 11.765625 6.480469 13.859375 8.578125 L 20.011719 14.734375 C 20.359375 15.082031 20.628906 15.480469 20.816406 15.9375 C 21.007812 16.390625 21.101562 16.863281 21.101562 17.355469 C 21.101562 17.847656 21.007812 18.320312 20.816406 18.773438 C 20.628906 19.230469 20.359375 19.628906 20.011719 19.976562 L 13.863281 26.128906 C 11.988281 28 17.910156 30.765625 20.183594 28.492188 L 28.742188 19.933594 C 29.089844 19.585938 29.359375 19.183594 29.550781 18.726562 C 29.742188 18.269531 29.835938 17.796875 29.835938 17.300781 C 29.835938 16.808594 29.742188 16.335938 29.550781 15.878906 C 29.359375 15.421875 29.089844 15.019531 28.742188 14.671875 Z M 28.742188 14.671875 " fill-opacity="1" fill-rule="nonzero"/></g><g clip-path="url(#c4cf6c953e)"><path fill="#1174ee" d="M 28.742188 14.671875 L 20.183594 6.113281 C 17.886719 3.816406 11.765625 6.480469 13.859375 8.578125 L 20.011719 14.734375 C 20.625 15.34375 20.980469 16.078125 21.074219 16.9375 C 23.195312 19.425781 24.957031 21.84375 25.324219 23.351562 L 28.746094 19.929688 C 29.097656 19.578125 29.363281 19.175781 29.554688 18.722656 C 29.742188 18.265625 29.835938 17.792969 29.835938 17.296875 C 29.835938 16.804688 29.738281 16.332031 29.550781 15.875 C 29.359375 15.421875 29.089844 15.019531 28.742188 14.671875 Z M 28.742188 14.671875 " fill-opacity="1" fill-rule="nonzero"/></g><g fill="#1174ee" fill-opacity="1"><g transform="translate(30.216944, 27.036905)"><g><path d="M 14.59375 -18.796875 L 14.3125 -14.40625 L 14.203125 -14.375 C 13.460938 -15.476562 12.207031 -16.195312 10.4375 -16.53125 C 9.875 -16.632812 9.332031 -16.6875 8.8125 -16.6875 C 8.300781 -16.6875 7.863281 -16.640625 7.5 -16.546875 C 7.132812 -16.460938 6.828125 -16.335938 6.578125 -16.171875 C 6.023438 -15.804688 5.75 -15.335938 5.75 -14.765625 C 5.75 -14.003906 5.988281 -13.429688 6.46875 -13.046875 C 7.0625 -12.585938 8.050781 -12.265625 9.4375 -12.078125 C 10.832031 -11.898438 11.945312 -11.648438 12.78125 -11.328125 C 13.625 -11.015625 14.3125 -10.613281 14.84375 -10.125 C 15.863281 -9.195312 16.375 -7.898438 16.375 -6.234375 C 16.375 -4.035156 15.546875 -2.34375 13.890625 -1.15625 C 12.472656 -0.132812 10.6875 0.375 8.53125 0.375 C 6.789062 0.375 5.078125 0.046875 3.390625 -0.609375 C 2.828125 -0.828125 2.335938 -1.082031 1.921875 -1.375 L 2.078125 -6.375 L 2.140625 -6.421875 C 3.378906 -4.285156 5.410156 -3.21875 8.234375 -3.21875 C 10.234375 -3.21875 11.5625 -3.703125 12.21875 -4.671875 C 12.4375 -5.003906 12.546875 -5.367188 12.546875 -5.765625 C 12.546875 -6.171875 12.476562 -6.503906 12.34375 -6.765625 C 12.21875 -7.035156 12.003906 -7.265625 11.703125 -7.453125 C 11.128906 -7.828125 10.15625 -8.078125 8.78125 -8.203125 C 7.414062 -8.335938 6.296875 -8.582031 5.421875 -8.9375 C 4.554688 -9.300781 3.867188 -9.75 3.359375 -10.28125 C 2.421875 -11.238281 1.953125 -12.578125 1.953125 -14.296875 C 1.953125 -16.066406 2.570312 -17.503906 3.8125 -18.609375 C 5.082031 -19.722656 6.789062 -20.28125 8.9375 -20.28125 C 11.09375 -20.28125 12.976562 -19.785156 14.59375 -18.796875 Z M 14.59375 -18.796875 "/></g></g></g><g fill="#1174ee" fill-opacity="1"><g transform="translate(48.070373, 27.036905)"><g><path d="M 6.609375 0.09375 C 5.648438 0.03125 4.515625 0 3.203125 0 L 2.71875 0 L 2.71875 -19.984375 C 3.34375 -19.929688 3.785156 -19.90625 4.046875 -19.90625 L 4.65625 -19.90625 C 5.445312 -19.90625 6.097656 -19.945312 6.609375 -20.03125 L 6.609375 -12.046875 L 13.65625 -12.046875 L 13.65625 -19.984375 C 14.476562 -19.929688 15.28125 -19.90625 16.0625 -19.90625 C 16.851562 -19.90625 17.347656 -19.945312 17.546875 -20.03125 L 17.546875 0.09375 C 17.066406 0.03125 16.117188 0 14.703125 0 L 13.65625 0 L 13.65625 -8.453125 L 6.609375 -8.453125 Z M 6.609375 0.09375 "/></g></g></g><g fill="#001001" fill-opacity="1"><g transform="translate(68.483672, 27.036905)"><g><path d="M 13.0625 -8.609375 C 12.582031 -8.660156 11.96875 -8.6875 11.21875 -8.6875 L 6.671875 -8.6875 L 6.671875 0 L 2.578125 0 L 2.578125 -20.015625 C 2.847656 -19.992188 3.15625 -19.976562 3.5 -19.96875 L 4.609375 -19.9375 C 5.367188 -19.914062 6.15625 -19.90625 6.96875 -19.90625 C 9.425781 -19.90625 11.773438 -19.945312 14.015625 -20.03125 C 13.898438 -19.15625 13.84375 -17.984375 13.84375 -16.515625 C 13.84375 -16.347656 13.851562 -16.226562 13.875 -16.15625 L 13.84375 -16.109375 C 13.3125 -16.253906 12.570312 -16.328125 11.625 -16.328125 L 6.671875 -16.328125 L 6.671875 -12.21875 L 11.046875 -12.21875 C 12.140625 -12.21875 12.796875 -12.242188 13.015625 -12.296875 Z M 13.0625 -8.609375 "/></g></g></g><g fill="#001001" fill-opacity="1"><g transform="translate(83.778058, 27.036905)"><g><path d="M 4.203125 -2.359375 C 3.296875 -3.234375 2.578125 -4.273438 2.046875 -5.484375 C 1.523438 -6.703125 1.265625 -8.035156 1.265625 -9.484375 C 1.265625 -10.941406 1.507812 -12.316406 2 -13.609375 C 2.488281 -14.910156 3.1875 -16.054688 4.09375 -17.046875 C 5.007812 -18.035156 6.109375 -18.820312 7.390625 -19.40625 C 8.679688 -19.988281 10.125 -20.28125 11.71875 -20.28125 C 14.476562 -20.28125 16.800781 -19.410156 18.6875 -17.671875 C 20.695312 -15.816406 21.703125 -13.3125 21.703125 -10.15625 C 21.703125 -7.101562 20.664062 -4.566406 18.59375 -2.546875 C 17.3125 -1.296875 15.789062 -0.4375 14.03125 0.03125 C 13.15625 0.257812 12.132812 0.375 10.96875 0.375 C 9.8125 0.375 8.617188 0.132812 7.390625 -0.34375 C 6.171875 -0.820312 5.109375 -1.492188 4.203125 -2.359375 Z M 5.4375 -9.703125 C 5.4375 -8.773438 5.585938 -7.921875 5.890625 -7.140625 C 6.203125 -6.359375 6.632812 -5.691406 7.1875 -5.140625 C 8.351562 -3.960938 9.851562 -3.375 11.6875 -3.375 C 13.4375 -3.375 14.835938 -3.9375 15.890625 -5.0625 C 16.972656 -6.226562 17.515625 -7.816406 17.515625 -9.828125 C 17.515625 -11.722656 17 -13.304688 15.96875 -14.578125 C 14.863281 -15.929688 13.347656 -16.609375 11.421875 -16.609375 C 9.554688 -16.609375 8.070312 -15.921875 6.96875 -14.546875 C 5.945312 -13.265625 5.4375 -11.648438 5.4375 -9.703125 Z M 5.4375 -9.703125 "/></g></g></g><g fill="#001001" fill-opacity="1"><g transform="translate(106.749569, 27.036905)"><g><path d="M 9.015625 -7.734375 C 8.710938 -7.710938 8.390625 -7.703125 8.046875 -7.703125 C 7.710938 -7.703125 7.210938 -7.726562 6.546875 -7.78125 L 6.546875 0 L 2.578125 0 L 2.578125 -20.015625 C 3.972656 -20.191406 5.6875 -20.28125 7.71875 -20.28125 C 10.5 -20.28125 12.566406 -19.769531 13.921875 -18.75 C 15.285156 -17.726562 15.96875 -16.148438 15.96875 -14.015625 C 15.96875 -12.359375 15.34375 -10.941406 14.09375 -9.765625 C 13.6875 -9.378906 13.21875 -9.046875 12.6875 -8.765625 L 15.75 -2.328125 C 16.34375 -1.003906 16.800781 -0.21875 17.125 0.03125 L 17.046875 0.109375 C 16.078125 -0.0546875 14.554688 -0.0507812 12.484375 0.125 Z M 8.015625 -16.75 C 7.503906 -16.75 7.015625 -16.722656 6.546875 -16.671875 L 6.546875 -10.953125 C 7.035156 -10.890625 7.609375 -10.859375 8.265625 -10.859375 C 8.921875 -10.859375 9.472656 -10.914062 9.921875 -11.03125 C 10.367188 -11.144531 10.757812 -11.320312 11.09375 -11.5625 C 11.800781 -12.082031 12.15625 -12.867188 12.15625 -13.921875 C 12.15625 -14.984375 11.785156 -15.734375 11.046875 -16.171875 C 10.359375 -16.554688 9.347656 -16.75 8.015625 -16.75 Z M 8.015625 -16.75 "/></g></g></g><g fill="#001001" fill-opacity="1"><g transform="translate(124.602999, 27.036905)"><g><path d="M 6.609375 0.09375 C 6.128906 0.03125 5.207031 0 3.84375 0 L 2.65625 0 L 2.65625 -19.96875 C 3.289062 -19.925781 3.988281 -19.90625 4.75 -19.90625 C 5.519531 -19.90625 6.066406 -19.945312 6.390625 -20.03125 L 11.421875 -11.484375 L 16.25 -20.03125 C 16.570312 -19.945312 17.179688 -19.90625 18.078125 -19.90625 C 18.972656 -19.90625 19.742188 -19.925781 20.390625 -19.96875 L 20.390625 0 L 19.1875 0 C 17.820312 0 16.898438 0.03125 16.421875 0.09375 L 16.421875 -13.328125 L 11.53125 -4.5625 L 6.609375 -12.625 Z M 6.609375 0.09375 "/></g></g></g></svg>